<svg xmlns="http://www.w3.org/2000/svg" viewBox="0 0 89 60" enable-background="new 0 0 89 60"><style type="text/css">.st0{fill:#FFFFFF;}</style><path class="st0" d="M25.87 50.13c-.24 0-.49-.09-.67-.28L5.92 30.57c-.18-.18-.28-.42-.28-.67s.1-.49.28-.67L25.17 9.98c.37-.37.97-.37 1.34 0s.37.97 0 1.34L7.93 29.9l18.61 18.61c.37.37.37.97 0 1.34-.18.19-.42.28-.67.28zM60.26 50.13c-.24 0-.49-.09-.67-.28-.37-.37-.37-.97 0-1.34l18.58-18.58-18.62-18.61c-.37-.37-.37-.97 0-1.34s.97-.37 1.34 0l19.28 19.28c.37.37.37.97 0 1.34L60.93 49.86c-.18.18-.43.27-.67.27zM35.01 57.95c-.09 0-.18-.01-.27-.04-.5-.15-.79-.68-.64-1.18l15.93-54c.15-.5.67-.79 1.18-.64.5.15.79.68.64 1.18l-15.93 54c-.12.41-.5.68-.91.68z"/></svg>